<?xml version="1.0" encoding="UTF-8"?>
<svg version="1.1" xmlns="http://www.w3.org/2000/svg" width="1052" height="1006">
<path d="M0 0 C2.5692498 0.97107181 3.32225163 2.0061378 4.875 4.25219727 C5.38691895 4.97898682 5.89883789 5.70577637 6.42626953 6.45458984 C6.96622559 7.24244873 7.50618164 8.03030762 8.0625 8.84204102 C9.22537671 10.49391808 10.38946434 12.14494328 11.5546875 13.79516602 C12.14088867 14.63112305 12.72708984 15.46708008 13.33105469 16.32836914 C20.63307383 26.66568897 28.3728933 36.59385925 36.66064453 46.15551758 C38.11627127 47.84183403 39.55751274 49.5396043 40.99609375 51.24047852 C51.12993463 63.20268356 61.74536052 74.54704909 72.8125 85.65454102 C73.69993896 86.54665283 74.58737793 87.43876465 75.50170898 88.35791016 C80.52876191 93.37272608 85.66086206 98.17256015 91.0625 102.77954102 C92.14565735 103.72877841 93.22773829 104.67924588 94.30859375 105.63110352 C103.25211245 113.43233397 112.54457031 120.69446433 122.0625 127.77954102 C122.77390137 128.31192383 123.48530273 128.84430664 124.21826172 129.39282227 C133.09502095 136.0126418 142.16664351 142.25690066 151.5 148.21704102 C152.3871167 148.78414795 153.2742334 149.35125488 154.18823242 149.93554688 C181.83246702 167.36998496 212.08595954 180.59092262 243.0625 190.77954102 C244.28066406 191.18043945 245.49882812 191.58133789 246.75390625 191.99438477 C257.33588794 195.22740739 268.25358686 197.17075471 279.11376953 199.2199707 C281.61974508 199.69552096 284.12044356 200.19109137 286.62109375 200.69360352 C331.25091856 209.29176993 382.04327907 207.12255539 426.0625 195.77954102 C429.0625 195.65454102 429.0625 195.65454102 431.0625 195.77954102 C430.47408608 201.63229816 428.83868234 206.67229722 426.75 212.15454102 C426.30624023 213.35336914 426.30624023 213.35336914 425.85351562 214.57641602 C418.31307247 234.70597916 408.30399843 253.83412694 395.0625 270.77954102 C394.44890625 271.59938477 393.8353125 272.41922852 393.203125 273.26391602 C367.83625652 306.43597479 329.79208512 325.42554289 289.0625 331.77954102 C288.0430127 331.9508252 287.02352539 332.12210938 285.97314453 332.29858398 C281.30025495 332.87328697 276.71524774 332.97857454 272.01171875 333.01782227 C270.56736954 333.032649 270.56736954 333.032649 269.09384155 333.04777527 C248.76170748 333.21337035 228.97422319 333.36729939 209.0625 328.77954102 C207.82612793 328.50045898 206.58975586 328.22137695 205.31591797 327.93383789 C142.22787881 313.53921029 77.89873058 289.20722232 26.5625 248.84204102 C25.47978676 247.99489373 24.39643736 247.14855895 23.3125 246.30297852 C22.77753906 245.885 22.24257813 245.46702148 21.69140625 245.03637695 C18.08396409 242.25293687 14.39496032 239.5765209 10.71875 236.88500977 C7.94129259 234.68346632 5.52636244 232.32514297 3.0625 229.77954102 C2.22589844 228.94293945 1.38929688 228.10633789 0.52734375 227.24438477 C-1.9609375 224.75610352 -4.44921875 222.26782227 -6.9375 219.77954102 C-7.61425781 219.11954102 -8.29101562 218.45954102 -8.98828125 217.77954102 C-12.94775744 213.71691214 -16.39536566 209.20443297 -19.9375 204.77954102 C-20.75992188 203.7624707 -21.58234375 202.74540039 -22.4296875 201.69750977 C-46.36844107 171.68885573 -60.26623531 134.39996559 -56.9375 95.77954102 C-55.20859521 82.94093602 -51.52548171 70.46350278 -45.9375 58.77954102 C-45.59090332 58.05202637 -45.24430664 57.32451172 -44.88720703 56.57495117 C-39.40543712 45.26422471 -15.36638564 -1.74846853 0 0 Z " fill="#1F9EA7" transform="translate(243.9375,673.220458984375)"/>
<path d="M0 0 C1.00474365 -0.00807175 2.0094873 -0.01614349 3.04467773 -0.02445984 C5.1762522 -0.03826927 7.30784849 -0.04900542 9.43945312 -0.05688477 C11.57623986 -0.06828824 13.71300083 -0.08854979 15.84960938 -0.1184082 C34.96417351 -0.38488071 53.16169684 1.63988441 71.4375 7.48828125 C72.38302734 7.78492676 73.32855469 8.08157227 74.30273438 8.38720703 C120.15806341 23.20141182 155.09968795 57.25744924 176.92431641 99.64013672 C190.59355357 126.95194457 198.19443645 156.02769366 203 186.05078125 C203.17192871 187.11844727 203.34385742 188.18611328 203.52099609 189.28613281 C204.48202755 195.65484913 204.90466257 201.79936635 204.6875 208.23828125 C201.76085725 206.85184695 199.14744059 205.26131571 196.4921875 203.41015625 C195.69876953 202.86045166 194.90535156 202.31074707 194.08789062 201.74438477 C193.25451172 201.16487061 192.42113281 200.58535645 191.5625 199.98828125 C161.62718957 179.3528514 128.4854351 165.37662592 92.94482422 157.72900391 C90.97993757 157.30185463 89.02236957 156.84130841 87.06640625 156.375 C42.83668835 146.40413874 -6.8278542 149.62150942 -51.234375 156.91943359 C-53.91655641 157.3309619 -56.60379411 157.62139839 -59.30224609 157.90283203 C-103.04065885 162.48171372 -146.42064967 173.54470636 -188.72485352 185.20703125 C-189.70510498 185.47644531 -190.68535645 185.74585938 -191.6953125 186.0234375 C-192.54496582 186.2594165 -193.39461914 186.49539551 -194.27001953 186.73852539 C-196.3125 187.23828125 -196.3125 187.23828125 -198.3125 187.23828125 C-197.71847124 181.4771452 -195.55905826 176.66743892 -193.25 171.42578125 C-192.84587891 170.49870361 -192.44175781 169.57162598 -192.02539062 168.61645508 C-190.79887436 165.8186448 -189.55913034 163.02718149 -188.3125 160.23828125 C-187.96203613 159.45324219 -187.61157227 158.66820312 -187.25048828 157.859375 C-182.78029994 147.92464971 -177.74837168 138.4233511 -172.30712891 128.98974609 C-170.93947827 126.58141873 -169.66109566 124.12842002 -168.375 121.67578125 C-162.36864369 110.61144068 -154.84419684 100.29970832 -147.3125 90.23828125 C-146.55453125 89.2121875 -145.7965625 88.18609375 -145.015625 87.12890625 C-139.35362469 79.54951821 -133.19739644 72.60162041 -126.70263672 65.72998047 C-124.68854836 63.56874411 -122.75600443 61.33794365 -120.8125 59.11328125 C-107.13921588 43.9152784 -90.90021265 32.44349723 -73.3125 22.23828125 C-72.67586426 21.86429199 -72.03922852 21.49030273 -71.38330078 21.10498047 C-54.28143492 11.14536119 -35.68159538 5.03064249 -16.3125 1.23828125 C-15.44359131 1.05942383 -14.57468262 0.88056641 -13.67944336 0.69628906 C-9.11344435 0.07517282 -4.60358662 0.03579776 0 0 Z " fill="#F8C116" transform="translate(577.3125,-0.23828125)"/>
<path d="M0 0 C6.2386618 0.07509044 12.35017441 0.95787835 18.515625 1.85546875 C19.74547119 2.03335937 20.97531738 2.21125 22.24243164 2.39453125 C33.09248646 4.02834232 43.68108554 6.2933645 54.265625 9.16796875 C55.41289063 9.47347656 56.56015625 9.77898437 57.7421875 10.09375 C84.14909782 17.68155841 107.27068906 30.32723963 127.265625 49.16796875 C127.95269531 49.79058594 128.63976562 50.41320312 129.34765625 51.0546875 C149.4028397 69.9231737 159.17752384 98.81675094 160.546875 125.79296875 C162.06827669 176.84739286 146.30545464 231.41534474 115.265625 272.16796875 C114.28335938 273.46927734 114.28335938 273.46927734 113.28125 274.796875 C99.44656224 292.60474788 83.18516894 307.4680312 63.265625 318.16796875 C62.63865723 318.51021484 62.01168945 318.85246094 61.36572266 319.20507812 C32.4108234 334.86908351 0.48707402 341.31242882 -32.27172852 341.40820312 C-34.32541574 341.41810638 -36.37817848 341.44933726 -38.43164062 341.48046875 C-39.72908203 341.485625 -41.02652344 341.49078125 -42.36328125 341.49609375 C-43.53963135 341.50543945 -44.71598145 341.51478516 -45.92797852 341.52441406 C-47.31714478 341.34797363 -47.31714478 341.34797363 -48.734375 341.16796875 C-49.724375 339.68296875 -49.724375 339.68296875 -50.734375 338.16796875 C-49.75 335.33203125 -49.75 335.33203125 -47.984375 331.79296875 C-47.329282 330.45449808 -46.67434342 329.11595183 -46.01953125 327.77734375 C-45.65617676 327.04708984 -45.29282227 326.31683594 -44.91845703 325.56445312 C-42.70330979 321.0811778 -40.5701981 316.55852735 -38.421875 312.04296875 C-37.9897168 311.14271973 -37.55755859 310.2424707 -37.11230469 309.31494141 C-36.49790527 308.03176025 -36.49790527 308.03176025 -35.87109375 306.72265625 C-35.50717529 305.96452637 -35.14325684 305.20639648 -34.76831055 304.42529297 C-33.67342445 302.03489939 -32.69725951 299.61418894 -31.734375 297.16796875 C-31.12722656 295.73710938 -31.12722656 295.73710938 -30.5078125 294.27734375 C-15.9410457 259.284552 -7.11423158 220.91610977 -2.98339844 183.30078125 C-2.69311581 180.81459592 -2.35968682 178.33585338 -2.0234375 175.85546875 C1.45042572 150.01165205 2.6050733 124.34192428 2.52636719 98.30200195 C2.51490183 94.47472093 2.5217969 90.64771603 2.53325653 86.82044411 C2.58071401 68.09280812 1.96835215 49.73064012 -0.734375 31.16796875 C-0.97762059 29.34553715 -1.21737288 27.52263485 -1.453125 25.69921875 C-1.58074219 24.71566406 -1.70835937 23.73210937 -1.83984375 22.71875 C-2.10286458 20.68489583 -2.36588542 18.65104167 -2.62890625 16.6171875 C-2.75652344 15.63363281 -2.88414062 14.65007812 -3.015625 13.63671875 C-3.13679687 12.69570313 -3.25796875 11.7546875 -3.3828125 10.78515625 C-3.68698553 8.52075706 -4.03148872 6.26783129 -4.390625 4.01171875 C-4.5040625 3.07328125 -4.6175 2.13484375 -4.734375 1.16796875 C-3.734375 0.16796875 -3.734375 0.16796875 0 0 Z " fill="#EE8720" transform="translate(891.734375,406.83203125)"/>
<path d="M0 0 C2.77416847 -0.03957582 5.54785921 -0.06422273 8.32226562 -0.07910156 C9.62405762 -0.08635254 9.62405762 -0.08635254 10.95214844 -0.09375 C17.07739406 -0.07653735 17.07739406 -0.07653735 19.32226562 1.04589844 C18.22200149 4.34669083 17.49517225 4.97070126 14.88476562 7.10839844 C11.53068547 9.94646626 8.40536988 12.91514188 5.32226562 16.04589844 C2.49431833 18.91240865 -0.33192112 21.66016904 -3.42773438 24.23339844 C-14.43568259 33.72608253 -23.73072216 44.92070573 -31.67773438 57.04589844 C-32.37382812 58.10292969 -33.06992188 59.15996094 -33.78710938 60.24902344 C-63.84721659 107.55291309 -65.68804173 160.48159115 -53.84570312 214.03027344 C-53.45978139 215.70293681 -53.07025355 217.37477096 -52.67773438 219.04589844 C-52.45811035 219.99658203 -52.23848633 220.94726562 -52.01220703 221.92675781 C-45.42413227 249.99186709 -36.2258646 277.63458952 -24.67773438 304.04589844 C-23.99831787 305.61815186 -23.99831787 305.61815186 -23.30517578 307.22216797 C-16.80762984 322.31852615 -16.80762984 322.31852615 -9.58691406 337.07617188 C-8.67773438 339.04589844 -8.67773438 339.04589844 -8.67773438 341.04589844 C-14.76071211 340.39264563 -20.60492752 339.28185734 -26.55273438 337.85839844 C-27.46458496 337.64062744 -28.37643555 337.42285645 -29.31591797 337.19848633 C-37.64351862 335.15233779 -45.73529548 332.57813289 -53.81201172 329.70849609 C-55.39463431 329.14643934 -56.98288835 328.60027907 -58.57226562 328.05761719 C-73.0489351 323.00968482 -86.76852189 316.80507128 -99.97167969 309.03173828 C-102.29338039 307.69014878 -104.67227938 306.46703849 -107.05273438 305.23339844 C-119.66852205 298.35722588 -131.28783082 289.86972418 -142.34570312 280.73730469 C-144.63032595 278.85338619 -146.96879096 277.11446291 -149.40039062 275.42480469 C-151.94186275 273.63479188 -153.97141475 271.86092346 -155.92773438 269.42089844 C-158.7264997 266.06736671 -161.70720639 263.06346894 -164.86523438 260.04589844 C-187.48435373 237.94897017 -200.83671819 208.49719098 -207.67773438 178.04589844 C-207.85353027 177.30734619 -208.02932617 176.56879395 -208.21044922 175.80786133 C-208.79435814 172.35657521 -208.87862504 168.95434354 -208.91601562 165.46386719 C-208.92408737 164.73202713 -208.93215912 164.00018707 -208.94047546 163.24617004 C-208.95427205 161.69546845 -208.96501389 160.14473705 -208.97290039 158.59399414 C-208.98431245 157.03986427 -209.00458897 155.48577014 -209.03442383 153.93188477 C-209.67538519 120.45508166 -192.92945538 93.71246875 -170.67773438 70.04589844 C-170.14277344 69.45808594 -169.6078125 68.87027344 -169.05664062 68.26464844 C-151.03805586 49.21257876 -126.06167356 36.21674658 -102.67773438 25.04589844 C-101.99549805 24.71734863 -101.31326172 24.38879883 -100.61035156 24.05029297 C-69.21277015 9.06807492 -34.7854912 0.59625021 0 0 Z " fill="#BDCE2F" transform="translate(208.677734375,256.9541015625)"/>
<path d="M0 0 C0.87479004 0.27714844 1.74958008 0.55429687 2.65087891 0.83984375 C35.4894083 11.27542718 64.80086791 26.28607355 91 49 C90.97265625 50.81640625 90.97265625 50.81640625 90 53 C87.4458943 54.19886594 85.10976575 55.09660768 82.4375 55.9375 C81.66664063 56.19200928 80.89578125 56.44651855 80.1015625 56.70874023 C78.50349637 57.23331002 76.90302049 57.75059191 75.30029297 58.26074219 C73.25256929 58.91883042 71.22157725 59.6103721 69.19140625 60.3203125 C25.6077841 74.98654725 -22.59132319 74.15171027 -67 64 C-67.72477539 63.83773926 -68.44955078 63.67547852 -69.19628906 63.50830078 C-102.29760892 55.95492346 -154.14705938 36.99860743 -174 7 C-174 6.34 -174 5.68 -174 5 C-154.61317351 -1.27711001 -135.13934613 -6.74712762 -115 -10 C-114.29085449 -10.11859375 -113.58170898 -10.2371875 -112.85107422 -10.359375 C-76.02825962 -16.27496941 -35.24602749 -11.39560682 0 0 Z " fill="#1F9EA7" transform="translate(545,587)"/>
<path d="M0 0 C0.84204987 -0.00276947 1.68409973 -0.00553894 2.55166626 -0.00839233 C20.16055819 -0.05060037 37.47531287 0.52762027 54.875 3.375 C55.56027771 3.48515442 56.24555542 3.59530884 56.95159912 3.70880127 C68.45385916 5.56469128 79.75226712 7.83761626 90.9375 11.125 C92.27796387 11.51558594 92.27796387 11.51558594 93.64550781 11.9140625 C105.79175473 15.50053624 117.55189834 19.56075065 128.9375 25.125 C129.69659668 25.49496094 130.45569336 25.86492187 131.23779297 26.24609375 C148.90423685 34.96320661 167.15851654 45.86064204 178.9375 62.125 C178.9375 62.785 178.9375 63.445 178.9375 64.125 C172.79210377 67.02785048 166.54465128 68.83630269 159.9375 70.3125 C159.20289551 70.47911133 158.46829102 70.64572266 157.71142578 70.81738281 C146.51691935 73.22485671 135.33864721 73.33007142 123.9375 73.3125 C122.76448837 73.31109512 122.76448837 73.31109512 121.56777954 73.30966187 C58.34352585 73.14529581 -5.73717273 45.92256089 -57.14331055 10.44677734 C-58.7728087 9.32451516 -60.4162308 8.2225128 -62.0625 7.125 C-61.7325 6.135 -61.4025 5.145 -61.0625 4.125 C-40.60787886 0.85965385 -20.68140533 0.04454479 0 0 Z " fill="#F8C116" transform="translate(486.0625,352.875)"/>
<path d="M0 0 C2.46946296 0.00538543 4.93874539 -0.00000571 7.40820312 -0.00634766 C22.87845031 -0.01555762 37.95688873 0.62187859 53.21289062 3.38037109 C54.46384521 3.60289551 55.7147998 3.82541992 57.00366211 4.0546875 C74.17674512 7.19315164 90.52403511 11.93062486 106.83789062 18.13037109 C107.8672876 18.51999023 107.8672876 18.51999023 108.91748047 18.91748047 C127.82474351 26.23399409 145.10068184 37.46693867 160.83789062 50.13037109 C161.3813916 50.55962891 161.92489258 50.98888672 162.48486328 51.43115234 C169.8539323 57.27394901 176.5998248 63.69902665 183.27539062 70.31787109 C184.41210205 71.44056396 184.41210205 71.44056396 185.57177734 72.5859375 C196.58285351 83.66056261 196.58285351 83.66056261 198.90039062 90.06787109 C198.74353884 97.75360851 195.6760622 102.94419801 190.55664062 108.50146484 C188.83789062 110.13037109 188.83789062 110.13037109 185.83789062 112.13037109 C182.44291369 111.82078986 180.8977948 110.51429397 178.66601562 108.03271484 C178.08754883 107.39930176 177.50908203 106.76588867 176.91308594 106.11328125 C176.31077148 105.4382959 175.70845703 104.76331055 175.08789062 104.06787109 C173.83886864 102.69848881 172.58887465 101.32999245 171.33789062 99.96240234 C170.7371875 99.30191895 170.13648438 98.64143555 169.51757812 97.9609375 C164.26627293 91.81814871 164.26627293 91.81814871 157.83789062 87.13037109 C157.83789062 86.47037109 157.83789062 85.81037109 157.83789062 85.13037109 C157.31839844 84.91380859 156.79890625 84.69724609 156.26367188 84.47412109 C152.8641668 82.5909814 150.00701921 80.09946608 147.02539062 77.63037109 C136.2958136 68.91217921 124.92222365 61.5550745 112.86132812 54.82177734 C110.94336687 53.74880935 109.04320084 52.64285276 107.16992188 51.49365234 C104.5608306 49.96840468 101.86824845 49.01184332 99.02929688 47.99755859 C96.77386502 47.10503476 94.7217874 46.03199793 92.58789062 44.88037109 C64.74806608 30.72597331 29.83758161 24.35183261 -1.16210938 24.13037109 C-2.53239049 24.11665247 -3.90267034 24.10280723 -5.27294922 24.08886719 C-15.86589964 23.99106099 -26.45610113 24.00916942 -37.0489502 24.11077881 C-38.91183669 24.12805068 -40.77476598 24.14056631 -42.63769531 24.15234375 C-70.61853203 24.41956119 -98.86666782 29.27308809 -126.16210938 35.13037109 C-126.93248535 35.29359863 -127.70286133 35.45682617 -128.49658203 35.625 C-137.74820835 37.61123671 -146.85889813 40.09945855 -155.97460938 42.63037109 C-157.00078369 42.91509277 -158.02695801 43.19981445 -159.08422852 43.49316406 C-165.32696724 45.25384639 -171.46142926 47.20938588 -177.57495117 49.37841797 C-180.16210938 50.13037109 -180.16210938 50.13037109 -184.16210938 50.13037109 C-184.83624149 48.21631742 -185.50114258 46.29901083 -186.16210938 44.38037109 C-186.53335937 43.31302734 -186.90460938 42.24568359 -187.28710938 41.14599609 C-188.16210938 38.13037109 -188.16210938 38.13037109 -188.16210938 34.13037109 C-143.72361095 19.40494479 -98.82937861 8.74912241 -52.34960938 2.94287109 C-51.68053558 2.85783325 -51.01146179 2.77279541 -50.32211304 2.68518066 C-33.58393986 0.57855563 -16.86034357 -0.04352352 0 0 Z " fill="#F8C117" transform="translate(550.162109375,244.86962890625)"/>
<path d="M0 0 C5.17867714 -0.07881431 10.35114555 -0.0754248 15.52978516 0.00439453 C17.42649575 0.03310698 19.3233396 0.0537364 21.22021484 0.06787109 C52.95443973 0.36482895 85.18372655 6.00655872 114.27148438 19.04589844 C114.87573242 19.31370117 115.47998047 19.58150391 116.10253906 19.85742188 C120.53661294 21.83144853 124.9169928 23.902342 129.27148438 26.04589844 C129.87428223 26.34189941 130.47708008 26.63790039 131.09814453 26.94287109 C157.49739226 40.06804099 191.16582919 62.26246115 205.27148438 89.04589844 C204.69046674 94.4645647 200.11708603 97.71309854 196.45898438 101.35839844 C195.73388672 102.11185547 195.00878906 102.8653125 194.26171875 103.64160156 C193.20500977 104.70217773 193.20500977 104.70217773 192.12695312 105.78417969 C191.48395264 106.43427002 190.84095215 107.08436035 190.1784668 107.75415039 C188.27148438 109.04589844 188.27148438 109.04589844 186.24243164 108.95922852 C183.8801544 107.86455749 182.61858833 106.63179807 180.88085938 104.69433594 C180.25308594 104.00726563 179.6253125 103.32019531 178.97851562 102.61230469 C178.00978516 101.52755859 178.00978516 101.52755859 177.02148438 100.42089844 C172.05100323 94.90152981 166.9750037 89.80956017 161.27148438 85.04589844 C160.67932129 84.54799805 160.0871582 84.05009766 159.47705078 83.53710938 C127.06275654 56.56914396 89.54450759 40.25426846 48.27148438 32.04589844 C47.10536621 31.80073486 45.93924805 31.55557129 44.73779297 31.30297852 C34.98292555 29.33702752 25.31231175 28.24695059 15.390625 27.5378418 C12.90455001 27.35897873 10.4201963 27.16340723 7.93554688 26.96582031 C-9.61264762 25.62002642 -26.87512818 25.92891202 -44.41601562 27.23339844 C-45.73922821 27.32985153 -45.73922821 27.32985153 -47.08917236 27.42825317 C-70.27145756 29.15133478 -93.07327391 32.8149989 -115.72851562 38.04589844 C-116.50984863 38.22540039 -117.29118164 38.40490234 -118.09619141 38.58984375 C-124.31880845 40.02515554 -130.53765143 41.47839062 -136.72851562 43.04589844 C-138.19400182 41.15524032 -139.65086266 39.25887847 -141.10351562 37.35839844 C-141.51601563 36.82794922 -141.92851562 36.2975 -142.35351562 35.75097656 C-144.71945144 32.64091577 -146.47706618 29.75211409 -147.72851562 26.04589844 C-100.22484553 9.68057448 -50.18534112 0.84420581 0 0 Z " fill="#F8C117" transform="translate(520.728515625,280.9541015625)"/>
<path d="M0 0 C1.703125 1.56640625 1.703125 1.56640625 3.25 3.5625 C6.57570747 7.63704227 10.25200437 10.96244774 14.27734375 14.3359375 C14.84582031 14.88507812 15.41429687 15.43421875 16 16 C16 16.66 16 17.32 16 18 C16.56847656 18.2475 17.13695312 18.495 17.72265625 18.75 C20.36611659 20.20095593 22.24491353 21.9294293 24.4375 24 C36.61879026 35.10439359 50.22008171 44.02696431 64 53 C64.94407715 53.62334229 64.94407715 53.62334229 65.90722656 54.25927734 C74.77842962 60.1065618 84.17728666 64.55804792 93.81201172 68.97216797 C95.85875064 69.93364653 97.86361941 70.95182507 99.87109375 71.9921875 C156.42758743 100.48384187 230.23219209 104.31468897 290.25 85.625 C292.14464213 84.99608133 294.03923185 84.36671232 295.92626953 83.71533203 C298.26733148 82.90778417 300.61603835 82.12457152 302.96484375 81.33984375 C311.75792375 78.36541075 320.24738288 75.20969097 328.56640625 71.06640625 C331 70 331 70 334 70 C336.66666667 76.66666667 339.33333333 83.33333333 342 90 C342.58612061 91.26420776 342.58612061 91.26420776 343.18408203 92.55395508 C344.09677167 95.29011231 344.22785525 96.40228085 343 99 C341.33959961 100.24511719 341.33959961 100.24511719 339.15234375 101.296875 C338.33145264 101.69438965 337.51056152 102.0919043 336.66479492 102.50146484 C335.7647876 102.91348145 334.86478027 103.32549805 333.9375 103.75 C332.54011597 104.400896 332.54011597 104.400896 331.11450195 105.06494141 C311.6267887 113.89609463 291.02982546 119.54013965 270 123.1875 C269.05125 123.35475586 268.1025 123.52201172 267.125 123.69433594 C253.03913586 126.01486722 238.80392453 126.2081439 224.5625 126.1875 C223.39386917 126.18659363 223.39386917 126.18659363 222.20162964 126.18566895 C153.81714645 126.04277834 91.2628266 101.5243535 38 59 C37.0821875 58.27554688 36.164375 57.55109375 35.21875 56.8046875 C28.86848981 51.71353062 22.89444568 46.2847794 16.953125 40.73046875 C14.69141421 38.62244564 12.38170165 36.59767028 10 34.625 C6.90210613 31.91434286 4.58201345 29.19354295 2 26 C0.3563186 24.31066078 -1.3142876 22.64740076 -3 21 C-13.51439358 10.67437471 -13.51439358 10.67437471 -16 7 C-16 6.01 -16 5.02 -16 4 C-14.27921959 3.1290621 -12.54793677 2.27885442 -10.8125 1.4375 C-9.84957031 0.96183594 -8.88664062 0.48617187 -7.89453125 -0.00390625 C-4.6414508 -1.12338738 -3.20191406 -1.19737688 0 0 Z " fill="#1F9EA7" transform="translate(336,611)"/>
<path d="M0 0 C2.66256114 1.85914589 5.10210683 3.94629169 7.5625 6.0625 C14.11451686 11.53067994 20.75053182 16.47675262 28 21 C28.64630371 21.40927734 29.29260742 21.81855469 29.95849609 22.24023438 C91.20972145 60.97283476 162.81184063 75.86845409 234.2578125 60.76171875 C238.89441209 59.68174977 243.44674038 58.38446828 248 57 C249.14984375 56.68289063 250.2996875 56.36578125 251.484375 56.0390625 C256.26690179 54.67429266 260.86227559 53.08939475 265.4296875 51.125 C266.19708252 50.79612793 266.96447754 50.46725586 267.75512695 50.12841797 C269.2658704 49.47143399 270.77004866 48.79909025 272.26635742 48.10986328 C277.35799964 45.872527 277.35799964 45.872527 280.1640625 46.4296875 C282.83803283 48.71678553 285.08621801 51.29004673 287.3125 54 C287.79307861 54.5779834 288.27365723 55.1559668 288.76879883 55.75146484 C300 69.40345917 300 69.40345917 300 74 C285.95899513 80.88986748 272.07062926 86.71049061 257 91 C256.18934082 91.2362207 255.37868164 91.47244141 254.54345703 91.71582031 C237.13642594 96.65560925 219.05735259 98.73936464 201 99 C199.56237305 99.02271973 199.56237305 99.02271973 198.09570312 99.04589844 C190.72828126 99.1426519 183.36713581 99.09722194 176 99 C174.5147583 98.98912354 174.5147583 98.98912354 172.99951172 98.97802734 C150.23746409 98.75505527 127.66571564 95.02567527 106 88 C105.1965918 87.73960937 104.39318359 87.47921875 103.56542969 87.2109375 C75.53150533 77.99194432 49.18202912 64.7435308 25.41333008 47.17211914 C23.30584165 45.61629205 21.31042985 44.14467203 18.9296875 43.03515625 C16.11153979 41.52339685 14.22657338 39.28273325 12 37 C9.97227356 35.24927067 7.93619407 33.52235064 5.875 31.8125 C-14.57172842 14.62509866 -14.57172842 14.62509866 -18 8 C-18 6.68 -18 5.36 -18 4 C-15.94409546 3.13007846 -13.87994664 2.27962311 -11.8125 1.4375 C-10.66394531 0.96183594 -9.51539063 0.48617187 -8.33203125 -0.00390625 C-4.72380032 -1.08256848 -3.45428669 -1.39866823 0 0 Z " fill="#1F9DA7" transform="translate(363,598)"/>
<path d="M0 0 C4.94600711 4.10493484 9.41205733 8.38815185 13.75 13.125 C14.35271729 13.775896 14.95543457 14.42679199 15.57641602 15.09741211 C18.43818181 18.19265266 21.28057084 21.30468738 24.10546875 24.43359375 C29.85742419 30.82186787 29.85742419 30.82186787 36.1875 36.625 C37.115625 37.40875 38.04375 38.1925 39 39 C39 39.66 39 40.32 39 41 C39.53753906 41.2165625 40.07507813 41.433125 40.62890625 41.65625 C43.83889184 43.47541811 46.29931277 45.95846708 48.9375 48.5 C55.29452793 54.4805542 61.95096985 59.85580175 69 65 C69.63921387 65.46905762 70.27842773 65.93811523 70.93701172 66.42138672 C81.60798682 74.21456454 92.62866708 81.27762915 104 88 C105.37369751 88.82745728 105.37369751 88.82745728 106.77514648 89.67163086 C113.81750371 93.86691869 120.98019803 97.5391496 128.4375 100.9375 C129.57219727 101.45473633 130.70689453 101.97197266 131.87597656 102.50488281 C155.41607318 113.12204118 179.58363352 120.71999147 205 125.4375 C205.815896 125.58928711 206.63179199 125.74107422 207.47241211 125.89746094 C221.34789254 128.27184454 235.37892479 128.18639273 249.41040039 128.18530273 C252.5322048 128.18747888 255.65364882 128.20566886 258.77539062 128.22460938 C275.67471713 128.27258754 292.49928477 127.41121162 309.125 124.1875 C310.48878784 123.92767334 310.48878784 123.92767334 311.88012695 123.66259766 C333.19331634 119.48645239 354.79189345 113.26643366 373.97436523 102.91796875 C376 102 376 102 379 102 C379.68157937 105.14278784 380.34243058 108.28960853 381 111.4375 C381.28617188 112.75524414 381.28617188 112.75524414 381.578125 114.09960938 C382.76740062 119.85485387 383.19129428 125.12367891 383 131 C359.48997367 141.42425696 335.78914917 148.9720359 310.4375 153.1875 C309.44500244 153.35475586 308.45250488 153.52201172 307.42993164 153.69433594 C293.36678912 155.91730477 279.20729813 156.20871548 265 156.1875 C263.86346985 156.18659363 263.86346985 156.18659363 262.70397949 156.18566895 C198.57680553 156.04792 138.00242127 135.38316949 86 98 C85.24187012 97.45972168 84.48374023 96.91944336 83.70263672 96.36279297 C68.86032694 85.7585484 55.26229893 74.14661532 41.9375 61.71484375 C39.37155977 59.34339633 36.76514825 57.03783117 34.125 54.75 C30.72894456 51.74912192 27.73309198 48.57970759 24.8046875 45.125 C22.78813471 42.75053091 20.71294302 40.43690922 18.625 38.125 C17.87089844 37.28839844 17.11679687 36.45179688 16.33984375 35.58984375 C14.75035809 33.83052991 13.15915023 32.0727708 11.56640625 30.31640625 C10.78136719 29.44886719 9.99632812 28.58132813 9.1875 27.6875 C8.47980469 26.90761719 7.77210938 26.12773438 7.04296875 25.32421875 C3.516877 21.31269945 0.4546857 17.29775971 -2.25 12.6875 C-3.03117187 11.36298828 -3.03117187 11.36298828 -3.828125 10.01171875 C-4.21484375 9.34785156 -4.6015625 8.68398438 -5 8 C-3.35 5.36 -1.7 2.72 0 0 Z " fill="#1F9DA7" transform="translate(305,621)"/>
<path d="M0 0 C1.0490171 -0.00611329 1.0490171 -0.00611329 2.11922646 -0.01235008 C5.82907407 -0.03298188 9.53888734 -0.04737384 13.2487793 -0.05688477 C16.23955085 -0.06567427 19.22984712 -0.08641381 22.22045898 -0.1184082 C50.10072371 -0.4096215 76.82381298 1.67381725 103.58203125 10.23828125 C104.44119141 10.51043457 105.30035156 10.78258789 106.18554688 11.06298828 C132.66388479 19.57246164 156.92149259 32.76644262 178.58203125 50.23828125 C179.14680176 50.68880859 179.71157227 51.13933594 180.29345703 51.60351562 C188.74297182 58.38292134 196.6137722 65.77225006 204.0625 73.63916016 C205.05933561 74.68820792 206.08262161 75.71286487 207.1328125 76.70849609 C209.89879139 79.53257578 210.57724459 80.97022811 210.6484375 84.95703125 C209.61011775 90.10572424 207.54916824 94.91482615 205.51953125 99.73828125 C205.14248047 100.65609375 204.76542969 101.57390625 204.37695312 102.51953125 C203.45392161 104.76284835 202.52218601 107.00209936 201.58203125 109.23828125 C198.04339062 108.66697099 196.52970827 107.49473966 194.15625 104.8515625 C193.52396484 104.15998047 192.89167969 103.46839844 192.24023438 102.75585938 C191.58990234 102.02818359 190.93957031 101.30050781 190.26953125 100.55078125 C186.0835898 95.90865244 181.93052326 91.48109105 177.09326172 87.50878906 C174.78121183 85.56502369 172.71689218 83.37314218 170.58203125 81.23828125 C169.48460117 80.3342079 168.38032786 79.43838041 167.26953125 78.55078125 C166.38265625 77.78765625 165.49578125 77.02453125 164.58203125 76.23828125 C164.58203125 75.57828125 164.58203125 74.91828125 164.58203125 74.23828125 C164.02 73.97015625 163.45796875 73.70203125 162.87890625 73.42578125 C160.42652479 72.15788335 158.14275442 70.74855783 155.83203125 69.23828125 C155.0328125 68.72265625 154.23359375 68.20703125 153.41015625 67.67578125 C152.806875 67.20140625 152.20359375 66.72703125 151.58203125 66.23828125 C151.58203125 65.57828125 151.58203125 64.91828125 151.58203125 64.23828125 C150.8859375 63.99207031 150.18984375 63.74585938 149.47265625 63.4921875 C146.13678228 62.04513947 143.35081782 60.20380493 140.33203125 58.17578125 C111.95735996 39.58808541 79.85326575 28.94048813 46.58203125 23.23828125 C45.68081543 23.0798877 44.77959961 22.92149414 43.85107422 22.75830078 C23.14777381 19.16931663 2.55272556 18.9581887 -18.41796875 19.23828125 C-19.72797852 19.24915771 -19.72797852 19.24915771 -21.06445312 19.26025391 C-41.28476264 19.4967722 -61.40784386 22.54966634 -81.41796875 25.23828125 C-82.63983887 25.40199219 -83.86170898 25.56570312 -85.12060547 25.734375 C-122.55277367 30.89822058 -159.0982957 40.94245844 -195.24029541 51.73088074 C-200.31279831 53.23828125 -200.31279831 53.23828125 -201.41796875 53.23828125 C-201.86844798 44.37885633 -201.86844798 44.37885633 -198.41796875 40.23828125 C-192.80673914 35.67321309 -186.26407725 34.03962101 -179.41796875 31.98828125 C-178.12553282 31.595336 -176.83313446 31.20226716 -175.54077148 30.80908203 C-132.23409181 17.72802965 -88.19748659 8.06567332 -43.29296875 2.55078125 C-42.33551758 2.4314624 -41.37806641 2.31214355 -40.39160156 2.18920898 C-26.96011761 0.6015387 -13.51600637 0.07599111 0 0 Z " fill="#F8C116" transform="translate(559.41796875,209.76171875)"/>
<path d="M0 0 C2.68674316 0.00538229 5.37332028 -0.00000065 8.06005859 -0.00634766 C23.88535902 -0.01503224 39.31653199 0.55723048 54.93115234 3.38037109 C56.18283203 3.60289551 57.43451172 3.82541992 58.72412109 4.0546875 C68.83316785 5.90133237 78.72874613 8.12841695 88.55615234 11.13037109 C89.39549316 11.38544434 90.23483398 11.64051758 91.09960938 11.90332031 C126.64275307 22.86840964 168.58511813 42.85025636 190.61083984 74.30615234 C192.13871488 77.25457236 192.41864794 79.83026545 192.55615234 83.13037109 C185.3060922 88.36652564 177.58719829 92.26907162 169.55615234 96.13037109 C168.63833984 95.18935547 167.72052734 94.24833984 166.77490234 93.27880859 C157.11867659 83.00520185 157.11867659 83.00520185 145.55615234 75.13037109 C145.55615234 74.47037109 145.55615234 73.81037109 145.55615234 73.13037109 C144.81365234 72.86095703 144.07115234 72.59154297 143.30615234 72.31396484 C140.6583846 71.17437162 138.82263609 69.94853748 136.55615234 68.19287109 C77.08995513 25.90579752 -8.88110739 23.77172871 -78.33081055 33.55786133 C-79.01061478 33.65105652 -79.69041901 33.74425171 -80.39082336 33.840271 C-81.81348698 34.04129875 -83.23402509 34.25774106 -84.6525116 34.48638916 C-90.1404429 35.31453566 -90.1404429 35.31453566 -93.23681641 33.43505859 C-94.42210937 32.23236328 -94.42210937 32.23236328 -95.63134766 31.00537109 C-96.47310547 30.17392578 -97.31486328 29.34248047 -98.18212891 28.48583984 C-98.92849609 27.70853516 -99.67486328 26.93123047 -100.44384766 26.13037109 C-101.40109202 25.19175922 -102.35913551 24.25395956 -103.31884766 23.31787109 C-104.37072266 22.23505859 -104.37072266 22.23505859 -105.44384766 21.13037109 C-106.20697266 20.42912109 -106.97009766 19.72787109 -107.75634766 19.00537109 C-109.44384766 17.13037109 -109.44384766 17.13037109 -109.44384766 14.13037109 C-90.33076665 9.64749991 -71.26040358 5.71698341 -51.81884766 2.94287109 C-50.67665771 2.77585693 -49.53446777 2.60884277 -48.35766602 2.43676758 C-32.30406137 0.23128403 -16.18118353 -0.03840705 0 0 Z " fill="#F8C116" transform="translate(503.44384765625,316.86962890625)"/>
<path d="M0 0 C5.42979225 0.62054769 8.44600089 3.23657523 12 7.26953125 C12.66 8.10871094 13.32 8.94789063 14 9.8125 C26.23759096 25.05866815 39.39405878 39.46628256 53.1875 53.3125 C54.03127197 54.16094482 54.87504395 55.00938965 55.74438477 55.88354492 C60.6675947 60.79418455 65.69193254 65.50798556 71 70 C71.85464844 70.72445312 72.70929688 71.44890625 73.58984375 72.1953125 C91.47239072 86.89411151 110.14908093 100.08944856 130 112 C130.8765625 112.5465625 131.753125 113.093125 132.65625 113.65625 C179.53935494 142.21722198 235.13609093 155.95309263 289.6875 155.5625 C290.94427551 155.55890472 292.20105103 155.55530945 293.49591064 155.55160522 C313.43203333 155.47022749 332.51080059 154.31956943 352 150 C353.45962158 149.68772461 353.45962158 149.68772461 354.94873047 149.36914062 C360.69636515 148.11511124 366.34947468 146.63216188 372 145 C372.83273437 144.76667969 373.66546875 144.53335938 374.5234375 144.29296875 C384.65179251 141.44912132 394.45122073 138.2355136 404.12890625 134.1015625 C407 133 407 133 410 133 C410.18451025 152.00455581 410.18451025 152.00455581 409 160 C376.7739198 173.45666039 341.8009984 179.450288 307 180 C305.70835937 180.02835938 304.41671875 180.05671875 303.0859375 180.0859375 C300.08709748 180.11918406 297.09589411 180.10537807 294.09765625 180.04150391 C292.58218017 180.01151893 291.06649294 179.99162524 289.55078125 179.97802734 C265.57798055 179.71992602 241.36284102 176.21174861 218.2890625 169.65039062 C215.92742872 168.97938034 213.55813624 168.34151981 211.1875 167.703125 C197.64586169 163.94992614 184.85636865 158.62982776 172 153 C171.0709082 152.59330078 170.14181641 152.18660156 169.18457031 151.76757812 C164.11062429 149.53892098 159.04987457 147.28264532 154 145 C154 144.34 154 143.68 154 143 C153.14656006 142.82235107 153.14656006 142.82235107 152.27587891 142.64111328 C149.81089257 141.94672859 147.83292136 140.9682957 145.5859375 139.7421875 C144.74756348 139.28505371 143.90918945 138.82791992 143.04541016 138.35693359 C142.1641748 137.86789551 141.28293945 137.37885742 140.375 136.875 C139.46927246 136.37436035 138.56354492 135.8737207 137.63037109 135.35791016 C132.36309522 132.41328739 127.30248249 129.3638494 122.453125 125.76171875 C120.43223835 124.31041321 118.401672 122.96716876 116.296875 121.64453125 C115.32500244 121.03375732 115.32500244 121.03375732 114.33349609 120.41064453 C113.04818782 119.6079277 111.75953629 118.81053439 110.46728516 118.01904297 C108.94452215 117.06440561 107.46718874 116.03802547 106 115 C106 114.34 106 113.68 106 113 C105.30132812 112.77441406 104.60265625 112.54882812 103.8828125 112.31640625 C100.37319311 110.71377517 97.73736399 108.46612966 94.875 105.9375 C93.71820324 104.9353254 92.56063946 103.93403552 91.40234375 102.93359375 C90.8285498 102.43585449 90.25475586 101.93811523 89.66357422 101.42529297 C87.29687465 99.39758647 84.86786875 97.4506443 82.4375 95.5 C76.94719448 91.026712 71.74614769 86.27492174 66.56787109 81.45019531 C64.96953781 79.97182413 63.35622257 78.51155591 61.73828125 77.0546875 C55.2819574 71.21707081 49.23447463 65.18649215 43.4375 58.69140625 C41.83139302 56.91799646 40.17758114 55.1864928 38.4765625 53.50390625 C35.91758871 50.91667881 33.65040025 48.21338588 31.375 45.375 C28.57812761 41.8435255 28.57812761 41.8435255 25.52734375 38.53881836 C24.04666159 37.04701215 22.76429246 35.51495857 21.4765625 33.85546875 C21.0125 33.26056641 20.5484375 32.66566406 20.0703125 32.05273438 C19.59335937 31.43720703 19.11640625 30.82167969 18.625 30.1875 C17.68058671 28.97195707 16.73528039 27.75710745 15.7890625 26.54296875 C15.32918945 25.95177246 14.86931641 25.36057617 14.39550781 24.75146484 C13.0184153 23.02311255 11.59098974 21.34960948 10.1484375 19.67578125 C8 17 8 17 8 15 C7.34 15 6.68 15 6 15 C5.71125 14.030625 5.4225 13.06125 5.125 12.0625 C4.35785318 8.89335797 4.35785318 8.89335797 2 8 C1.3671875 6.15234375 1.3671875 6.15234375 0.875 3.9375 C0.70742188 3.20402344 0.53984375 2.47054687 0.3671875 1.71484375 C0.24601562 1.14894531 0.12484375 0.58304688 0 0 Z " fill="#209DA7" transform="translate(279,637)"/>
<path d="M0 0 C8.50791547 -0.09241609 17.01047793 -0.06052467 25.51806641 0.04589844 C26.45183105 0.05314941 27.3855957 0.06040039 28.34765625 0.06787109 C51.20652367 0.32228973 74.6855975 4.31671282 96.51806641 11.04589844 C97.25734375 11.26858398 97.99662109 11.49126953 98.75830078 11.72070312 C131.10590316 21.56381475 158.91036465 38.56744872 184.38183594 60.55541992 C187.26552964 63.06678033 187.26552964 63.06678033 190.51806641 65.04589844 C191.13684513 75.24428857 189.25932723 85.04401333 187.51806641 95.04589844 C180.39064963 93.45666459 175.15835827 87.67614049 169.89306641 82.85839844 C159.8038152 73.6778065 149.10684037 65.2551112 137.51806641 58.04589844 C136.92396973 57.67287598 136.32987305 57.29985352 135.71777344 56.91552734 C110.02326109 40.89331804 82.72500971 30.11707693 53.203125 23.63842773 C51.53634492 23.27060856 49.87198473 22.89138875 48.21191406 22.49438477 C42.0315986 21.03084498 35.82290231 20.21658633 29.51806641 19.48339844 C28.41229248 19.35408936 27.30651855 19.22478027 26.16723633 19.09155273 C17.28681681 18.08187093 8.4530127 17.2874923 -0.48193359 17.04589844 C-1.25375977 17.02398437 -2.02558594 17.00207031 -2.82080078 16.97949219 C-46.69964013 15.9368267 -91.2129248 21.70314618 -134.12353516 30.37060547 C-137.58165681 31.06595037 -141.04325975 31.74181853 -144.50537109 32.41699219 C-164.16051523 36.30532145 -183.4610166 41.21265378 -202.68505859 46.85449219 C-204.10334961 47.26924805 -204.10334961 47.26924805 -205.55029297 47.69238281 C-207.25752986 48.19597417 -208.96229507 48.70807992 -210.66357422 49.23144531 C-216.24598209 50.89338353 -221.67492403 51.64470625 -227.48193359 52.04589844 C-224.76713175 45.88538657 -221.93145628 41.05000996 -215.52648926 38.16514587 C-213.31043905 37.39099429 -211.08611677 36.71214595 -208.82958984 36.06542969 C-207.58279198 35.69089409 -207.58279198 35.69089409 -206.31080627 35.30879211 C-203.70645724 34.53470892 -201.09613494 33.78597317 -198.48193359 33.04589844 C-197.67939148 32.8175531 -196.87684937 32.58920776 -196.04998779 32.35394287 C-190.35703856 30.74706794 -184.64331509 29.22587514 -178.91943359 27.73339844 C-178.03284058 27.50111542 -177.14624756 27.2688324 -176.23278809 27.0295105 C-155.79361984 21.69486311 -135.18937979 17.20425729 -114.48193359 13.04589844 C-113.32274414 12.81290039 -112.16355469 12.57990234 -110.96923828 12.33984375 C-104.82432744 11.12434509 -98.66857061 10.02658144 -92.48193359 9.04589844 C-91.48887207 8.88814941 -90.49581055 8.73040039 -89.47265625 8.56787109 C-59.85700046 3.94842137 -29.98912773 0.39531314 0 0 Z " fill="#F8C116" transform="translate(591.48193359375,172.9541015625)"/>
<path d="M0 0 C7.92300751 3.38305409 12.8389979 12.07459706 17.6796875 18.8515625 C25.02541962 28.81900372 33.03014501 38.25418236 41.48046875 47.296875 C43.72259773 49.70238393 45.89615765 52.15158388 48.0625 54.625 C52.56498419 59.64135467 57.30475907 64.41383075 62.0625 69.1875 C63.19667358 70.32856201 63.19667358 70.32856201 64.35375977 71.49267578 C69.07445789 76.20053336 73.93757112 80.66389944 79 85 C80.08295282 85.94947074 81.16503096 86.89994034 82.24609375 87.8515625 C91.1882312 95.65176577 100.46399554 102.94071082 110 110 C110.67369629 110.49999512 111.34739258 110.99999023 112.04150391 111.51513672 C134.92628006 128.38257926 159.93171661 142.65779016 186 154 C186.65226563 154.29293945 187.30453125 154.58587891 187.9765625 154.88769531 C208.70323811 164.18643569 230.23480574 170.45291738 252.37280273 175.40966797 C253.98688341 175.77235239 255.59895923 176.14429081 257.20727539 176.53173828 C308.58743664 188.7002543 364.63277225 182.88281092 414.64575195 167.82861328 C415.44327881 167.58868652 416.24080566 167.34875977 417.0625 167.1015625 C417.75472656 166.88838379 418.44695312 166.67520508 419.16015625 166.45556641 C421 166 421 166 424 166 C424.25515919 173.52719602 423.28297723 180.58851545 422 188 C409.54986514 192.21217137 396.90725499 195.54412309 384 198 C383.05979004 198.18626953 382.11958008 198.37253906 381.15087891 198.56445312 C326.543779 208.92233416 269.12480389 201.95106048 217 184 C216.32888184 183.77554199 215.65776367 183.55108398 214.96630859 183.31982422 C184.96876941 173.23290975 157.14156974 157.18248774 131.125 139.43359375 C128.18230728 137.42706654 125.25958821 135.53739521 122.125 133.84765625 C118.83522796 131.90257853 116.63693994 129.74698879 114 127 C112.04492875 125.44831346 110.06383657 123.92903835 108.0625 122.4375 C98.75125864 115.39548654 89.65175211 107.95538827 81.5390625 99.54296875 C79.92874511 97.92856426 78.24177054 96.47124022 76.5 95 C67.55594829 87.28116086 58.96446243 78.68468638 51.39453125 69.61328125 C49.95841621 67.90914696 49.95841621 67.90914696 48.078125 66.1015625 C45.8640126 63.86247891 43.91121306 61.51580688 41.9375 59.0625 C39.44439389 55.98182061 36.94544054 52.91763216 34.35546875 49.91796875 C23.67648636 37.54797114 14.31956556 24.27938708 5.18408203 10.74169922 C4.40046157 9.58905007 3.60465077 8.44458646 2.79638672 7.30908203 C0 3.32248245 0 3.32248245 0 0 Z " fill="#209EA7" transform="translate(261,654)"/>
<path d="M0 0 C20.40321033 81.82989676 16.36915013 181.18168589 -27.09204102 255.16674805 C-39.68584305 276.03703868 -39.68584305 276.03703868 -45.12329102 277.61694336 C-45.74260498 277.74335205 -46.36191895 277.86976074 -47 278 C-47.75925781 277.02417969 -48.51851562 276.04835938 -49.30078125 275.04296875 C-50.30458124 273.7577295 -51.30849338 272.47257784 -52.3125 271.1875 C-52.81201172 270.54490234 -53.31152344 269.90230469 -53.82617188 269.24023438 C-54.31279297 268.61826172 -54.79941406 267.99628906 -55.30078125 267.35546875 C-55.96847534 266.49924927 -55.96847534 266.49924927 -56.6496582 265.62573242 C-57.97186201 263.93672982 -57.97186201 263.93672982 -59.73120117 262.5402832 C-61 261 -61 261 -60.84008789 259.03857422 C-59.9548341 256.89039951 -58.94193762 255.24806815 -57.55859375 253.3828125 C-57.06117676 252.70057617 -56.56375977 252.01833984 -56.05126953 251.31542969 C-55.51872559 250.59258789 -54.98618164 249.86974609 -54.4375 249.125 C-46.75249286 238.45404024 -40.44783127 227.53981039 -35.2265625 215.44921875 C-34 213 -34 213 -32 212 C-31.65321738 210.33607972 -31.32400307 208.66850559 -31 207 C-30.29218523 204.98771367 -29.50833104 203.01177714 -28.7277832 201.02661133 C-22.50225921 185.11656988 -18.62784764 168.62953504 -15.75 151.8125 C-15.52340698 150.49922729 -15.52340698 150.49922729 -15.29223633 149.15942383 C-12.42259418 131.24398733 -11.67373075 113.39907389 -11.73925781 95.27832031 C-11.75003026 91.74006188 -11.73926539 88.20230621 -11.7265625 84.6640625 C-11.71936901 72.28152026 -12.13631381 60.25143062 -14 48 C-14.1453418 46.96109619 -14.29068359 45.92219238 -14.44042969 44.85180664 C-15.63898832 36.4705472 -17.77651868 28.26747577 -19.78125 20.05078125 C-20.9193167 15.38056608 -21.97236988 10.69569873 -23 6 C-15.90419641 1.03293749 -8.44952768 -0.18856544 0 0 Z " fill="#EF8820" transform="translate(794,423)"/>
<path d="M0 0 C2.57905578 12.19885733 5.07289162 24.38994099 6.75 36.75 C6.86512939 37.59191895 6.98025879 38.43383789 7.09887695 39.30126953 C8.55774094 50.57300624 9.16318823 61.89754991 9.5625 73.25 C9.6042334 74.43601807 9.6459668 75.62203613 9.68896484 76.84399414 C9.99153883 85.90330635 10.18743761 94.93566277 10 104 C9.97317139 105.46880615 9.97317139 105.46880615 9.94580078 106.96728516 C8.73261605 166.28936173 -0.33695405 229.24047806 -29 282 C-29.43489746 282.81227051 -29.86979492 283.62454102 -30.31787109 284.46142578 C-31.74503401 287.12483835 -33.18228784 289.78248006 -34.625 292.4375 C-35.06835693 293.25460449 -35.51171387 294.07170898 -35.96850586 294.91357422 C-39.03550493 300.47601846 -42.39937905 305.76806774 -46 311 C-53.7633298 310.82748156 -60.58524025 306.41475975 -66 301 C-65.80223222 296.30301514 -63.24647825 293.22071487 -60.5 289.625 C-56.70947882 284.50038093 -53.20537764 279.28619505 -49.9375 273.8125 C-49.5559375 273.17715332 -49.174375 272.54180664 -48.78125 271.88720703 C-47.24022097 269.27860615 -45.96127281 266.88381843 -45 264 C-44.34 264 -43.68 264 -43 264 C-42.73574219 262.98550781 -42.47148438 261.97101563 -42.19921875 260.92578125 C-41.1149865 257.13714497 -39.54967036 253.72941943 -37.8125 250.1875 C-22.10005397 217.16990726 -14.55709818 181.02603905 -11.25878906 144.77050781 C-11.00083277 142.00891535 -10.71594906 139.25097268 -10.4296875 136.4921875 C-9.15024381 123.40309088 -8.81154746 110.39091522 -8.8125 97.25 C-8.81159363 96.43911926 -8.81068726 95.62823853 -8.80975342 94.79278564 C-8.81097612 85.1468876 -9.08862831 75.61038605 -10 66 C-10.11734497 64.65591064 -10.11734497 64.65591064 -10.23706055 63.28466797 C-11.31109854 50.69023259 -11.31109854 50.69023259 -13.5078125 38.2578125 C-14.07788945 35.64269761 -14.47280196 33.02103971 -14.875 30.375 C-15.80025658 24.62945509 -17.17469082 19.04754184 -18.67919922 13.43115234 C-19.54933424 10.12266357 -20 7.45560309 -20 4 C-17.41806023 3.32749476 -14.83467929 2.66182099 -12.25 2 C-11.52039063 1.80921875 -10.79078125 1.6184375 -10.0390625 1.421875 C-6.55428354 0.53484036 -3.61876278 0 0 0 Z " fill="#EF8820" transform="translate(829,413)"/>
<path d="M0 0 C7.07817299 21.30981867 11.14535067 43.15356176 11.16796875 65.62109375 C11.17296135 67.39106468 11.17296135 67.39106468 11.17805481 69.1967926 C11.18309056 71.68351862 11.18546418 74.17025131 11.18530273 76.65698242 C11.18747576 80.39578878 11.20563093 84.13429306 11.22460938 87.87304688 C11.25753205 101.7071764 10.82202545 115.28016313 9 129 C8.85925049 130.08643799 8.71850098 131.17287598 8.57348633 132.29223633 C3.36912239 169.10616245 -9.59288242 207.5910574 -33 237 C-36.28262963 235.90579012 -36.61571377 235.50835972 -38.41015625 232.76171875 C-38.84263672 232.10623047 -39.27511719 231.45074219 -39.72070312 230.77539062 C-40.16349609 230.08638672 -40.60628906 229.39738281 -41.0625 228.6875 C-41.73249023 227.67139648 -41.73249023 227.67139648 -42.41601562 226.63476562 C-46.53076607 220.34270328 -49.28577303 215.73281163 -48 208 C-46.50167781 204.39513292 -44.509894 201.17593344 -42.4375 197.875 C-41.32646569 196.01947328 -40.21970054 194.16138375 -39.1171875 192.30078125 C-38.31039551 190.94654053 -38.31039551 190.94654053 -37.48730469 189.56494141 C-31.71759239 179.61474485 -27.56632752 168.91084359 -24 158 C-23.57847656 156.75347656 -23.15695312 155.50695312 -22.72265625 154.22265625 C-18.94394103 142.57757701 -17.13073451 130.68980459 -15.40136719 118.59277344 C-15.14420741 116.9315588 -14.84248264 115.27627511 -14.48498535 113.63372803 C-14.02130501 111.11569749 -13.86079184 108.82364331 -13.83886719 106.26757812 C-13.82925964 105.35472046 -13.8196521 104.44186279 -13.80975342 103.50134277 C-13.8033786 102.03114685 -13.8033786 102.03114685 -13.796875 100.53125 C-13.78832489 98.98516052 -13.78832489 98.98516052 -13.77960205 97.40783691 C-13.77015925 95.21900452 -13.76362093 93.03015796 -13.75976562 90.84130859 C-13.75019614 87.56711057 -13.7192243 84.29357835 -13.6875 81.01953125 C-13.61821829 67.41554511 -14.58258566 54.38774571 -17 41 C-17.23074219 39.71416016 -17.46148438 38.42832031 -17.69921875 37.10351562 C-18.30657808 33.89396706 -18.95333391 30.69663306 -19.625 27.5 C-19.8415625 26.44425781 -20.058125 25.38851563 -20.28125 24.30078125 C-20.676376 22.37637129 -21.07391627 20.45245359 -21.47509766 18.52929688 C-21.99546699 16.0218428 -22.50070135 13.51172611 -23 11 C-4.46067416 0 -4.46067416 0 0 0 Z " fill="#EF8820" transform="translate(759,434)"/>
<path d="M0 0 C5.28 0 10.56 0 16 0 C32.16559367 70.49031403 27.3452273 153.04005613 11 223 C10.81324707 223.80066895 10.62649414 224.60133789 10.43408203 225.42626953 C2.7250695 258.07884802 -8.59340803 288.73469485 -23.8125 318.625 C-24.36381592 319.72303955 -24.91513184 320.8210791 -25.4831543 321.95239258 C-26.27459839 323.48029419 -26.27459839 323.48029419 -27.08203125 325.0390625 C-27.78162964 326.40345459 -27.78162964 326.40345459 -28.49536133 327.79541016 C-30.16428195 330.24070518 -31.19530576 331.10696973 -34 332 C-37.453125 331.3203125 -37.453125 331.3203125 -41.25 330.125 C-41.8996875 329.92519531 -42.549375 329.72539063 -43.21875 329.51953125 C-44.81659163 329.02608016 -46.40889803 328.51476828 -48 328 C-48.93706313 325.47563718 -49.11408782 324.31491785 -48.18310547 321.74511719 C-47.53172607 320.5332373 -47.53172607 320.5332373 -46.8671875 319.296875 C-46.39023437 318.39839844 -45.91328125 317.49992187 -45.421875 316.57421875 C-44.65617188 315.17623047 -44.65617188 315.17623047 -43.875 313.75 C-43.38773438 312.83347656 -42.90046875 311.91695312 -42.3984375 310.97265625 C-39.77306159 306.07800594 -37.02555236 301.31377307 -33.98486328 296.66503906 C-32.83363632 294.85224059 -32.83363632 294.85224059 -32 292 C-31.34 292 -30.68 292 -30 292 C-29.87343018 291.26273682 -29.74686035 290.52547363 -29.61645508 289.76586914 C-29.03853784 287.17290896 -28.2741533 285.13424449 -27.13671875 282.74609375 C-16.51625993 259.77199161 -7.4081902 235.20579719 -3.37548828 210.14746094 C-2.71967391 206.39678263 -1.80861453 202.70535504 -0.9375 199 C1.93152203 186.4812639 3.64231043 173.76228195 5 161 C5.11835205 159.96174072 5.2367041 158.92348145 5.35864258 157.85375977 C7.71917683 136.54188261 8.28277845 115.3754282 8.25 93.9375 C8.24904327 92.62605011 8.24808655 91.31460022 8.24710083 89.96340942 C8.24073177 86.21379459 8.2247111 82.46439947 8.203125 78.71484375 C8.19874924 77.57578583 8.19437347 76.43672791 8.18986511 75.26315308 C8.18038345 74.21716949 8.17090179 73.17118591 8.16113281 72.09350586 C8.15089081 70.72082802 8.15089081 70.72082802 8.14044189 69.32041931 C8.09067976 66.84147831 8.09067976 66.84147831 7 64 C6.8409994 62.10671507 6.72302167 60.20991951 6.625 58.3125 C5.91140583 47.4859384 4.41429607 36.75329807 3 26 C2.86271484 24.94329102 2.72542969 23.88658203 2.58398438 22.79785156 C2.18577679 19.73957959 1.78170859 16.682152 1.375 13.625 C1.25205566 12.68591797 1.12911133 11.74683594 1.00244141 10.77929688 C0.88562012 9.91626953 0.76879883 9.05324219 0.6484375 8.1640625 C0.54708496 7.40561035 0.44573242 6.6471582 0.34130859 5.86572266 C0.07430708 3.91614675 0.07430708 3.91614675 -1 2 C-0.67 1.34 -0.34 0.68 0 0 Z " fill="#EF8820" transform="translate(849,409)"/>
<path d="M0 0 C11.67990493 44.75701273 13.56522666 92.66839804 -1 137 C-1.26683594 137.82387207 -1.53367187 138.64774414 -1.80859375 139.49658203 C-4.76181031 148.453377 -8.27088891 157.00534013 -12.625 165.375 C-12.98505127 166.07085205 -13.34510254 166.7667041 -13.71606445 167.48364258 C-15.95771082 171.61449445 -18.23421766 175.07105818 -22 178 C-25.3125 178.3125 -25.3125 178.3125 -28 178 C-28.95972174 175.45884998 -29.91781494 172.91710543 -30.875 170.375 C-31.14441406 169.66214844 -31.41382813 168.94929687 -31.69140625 168.21484375 C-32.22495509 166.79638465 -32.75199183 165.37545884 -33.27246094 163.95214844 C-33.87309489 162.34051453 -34.52729996 160.748955 -35.1953125 159.1640625 C-37.72033321 149.23558303 -35.14764282 141.49172139 -31.25 132.3125 C-27.33343999 122.60121143 -23.89551764 113.31514253 -22 103 C-21.77828125 101.7934375 -21.5565625 100.586875 -21.328125 99.34375 C-17.83395259 75.73447696 -18.48117382 49.32889266 -24.1640625 26.1484375 C-24.9255073 22.7572297 -25.37193622 20.30878736 -24 17 C-19.08185573 11.35593038 -7.93033414 0 0 0 Z " fill="#EF8720" transform="translate(728,452)"/>
<path d="M0 0 C2.88749022 2.45726245 3.93213286 4.89265102 5.1875 8.4375 C5.70376953 9.85869141 5.70376953 9.85869141 6.23046875 11.30859375 C7 14 7 14 7 18 C6.16339844 18.44988281 5.32679688 18.89976562 4.46484375 19.36328125 C-26.57415409 36.38263001 -54.65814957 61.88073678 -66.25 96.1875 C-78.46875069 138.6985701 -61.06425867 181.96778261 -41 219 C-39.12737699 222.1897556 -37.2356446 225.36436068 -35.30493164 228.51928711 C-34 231 -34 231 -34 234 C-35.4562545 234.67119549 -36.91507867 235.33681807 -38.375 236 C-39.18710937 236.37125 -39.99921875 236.7425 -40.8359375 237.125 C-43 238 -43 238 -45 238 C-64.14563971 201.46443426 -83.80764365 163.14720482 -85 121 C-85.05994141 119.44345703 -85.05994141 119.44345703 -85.12109375 117.85546875 C-85.77724976 86.55296733 -73.35605867 60.57845934 -52 38 C-51.27554688 37.21109375 -50.55109375 36.4221875 -49.8046875 35.609375 C-38.85648395 24.10448314 -25.70177686 14.92350228 -12 7 C-10.84329242 6.32109152 -9.68705043 5.6413892 -8.53125 4.9609375 C-5.69344537 3.29671095 -2.84999147 1.64323833 0 0 Z " fill="#BECE2F" transform="translate(327,326)"/>
<path d="M0 0 C3.13869265 3.67984655 3.3992567 7.31530452 4 12 C3.04480469 12.49628906 2.08960938 12.99257813 1.10546875 13.50390625 C-18.71613572 23.88199271 -38.65496549 36.5533364 -53 54 C-53.66 54 -54.32 54 -55 54 C-55.25523437 54.56847656 -55.51046875 55.13695312 -55.7734375 55.72265625 C-57.14112634 58.26202757 -58.76172854 60.23646419 -60.625 62.4375 C-82.06078621 88.98072985 -90.02405704 120.76244568 -86.50390625 154.4296875 C-83.36646992 179.73739411 -75.83790493 203.94871882 -65 227 C-64.55156738 227.96196289 -64.10313477 228.92392578 -63.64111328 229.91503906 C-62.21023326 232.97004012 -60.76493981 236.01769223 -59.3125 239.0625 C-58.79647217 240.1450708 -58.28044434 241.2276416 -57.7487793 242.34301758 C-54.13212372 249.84967093 -50.28603961 257.17479951 -46.03442383 264.34204102 C-43.76202885 268.24874133 -42.42171434 271.40402845 -42 276 C-45.1875 276.3125 -45.1875 276.3125 -49 276 C-60.31027094 266.43112381 -65.76392298 248.06774919 -71.69995117 234.87915039 C-72.5635437 232.96659702 -73.43346201 231.05688686 -74.30981445 229.15014648 C-89.7888351 195.45774311 -98.88751353 160.14700207 -99 123 C-99.00402832 122.22688477 -99.00805664 121.45376953 -99.01220703 120.65722656 C-98.89817371 91.5586058 -84.87071008 65.24384483 -66 44 C-65.1311148 42.94778245 -64.26519227 41.89311095 -63.40234375 40.8359375 C-61.45602199 38.53832839 -59.60633192 36.61312462 -57.3125 34.6875 C-55.1147589 32.82348995 -52.95398692 30.95650589 -50.859375 28.9765625 C-40.96440456 19.65375022 -14.57317295 -4.75212161 0 0 Z " fill="#BFCE2E" transform="translate(317,304)"/>
<path d="M0 0 C0.0900673 7.02608298 -0.08948272 13.9419914 -0.75 20.9375 C-0.83725342 21.86643066 -0.92450684 22.79536133 -1.0144043 23.75244141 C-4.78168076 61.78786502 -12.71611912 99.13404196 -26 135 C-27.32 135 -28.64 135 -30 135 C-43.56312988 108.78243628 -53.33077004 81.32690356 -44.14331055 51.98803711 C-39.36409937 37.73398543 -18.51359969 0 0 0 Z " fill="#BDCE2F" transform="translate(338,386)"/>
<path d="M0 0 C0.54722031 3.43478464 1.05629591 6.86751416 1.5078125 10.31640625 C1.79131351 12.4381638 2.11649835 14.557059 2.5546875 16.65234375 C2.92367302 19.21274326 2.99224729 20.596246 2 23 C-1.66863906 26.22597683 -5.79503435 28.54116415 -10 31 C-29.31252895 44.34377001 -44.83817053 64.87383745 -50 88 C-54.59636465 116.87380745 -47.93430817 146.98506563 -32.2890625 171.703125 C-30.20522271 175.41614863 -30.33426646 178.86347588 -31 183 C-32.625 186.0625 -32.625 186.0625 -35 188 C-38.1484375 188.12109375 -38.1484375 188.12109375 -41 188 C-41.51949219 186.96101562 -42.03898437 185.92203125 -42.57421875 184.8515625 C-43.07707397 183.8462146 -43.07707397 183.8462146 -43.59008789 182.82055664 C-44.32833497 181.34356977 -45.06578872 179.86618612 -45.80249023 178.38842773 C-47.31710317 175.35221595 -48.83398719 172.3195051 -50.3984375 169.30859375 C-65.74770479 139.69171895 -75.95486886 102.489208 -66.1953125 69.51953125 C-64.47430382 64.4521168 -62.53921917 59.71166223 -60 55 C-59.4740625 54.01515625 -58.948125 53.0303125 -58.40625 52.015625 C-49.17128639 35.47664471 -21.1971328 0 0 0 Z " fill="#BECE2F" transform="translate(336,355)"/>
<path d="M0 0 C0.94875 0.23074219 1.8975 0.46148437 2.875 0.69921875 C3.57625 0.90160156 4.2775 1.10398437 5 1.3125 C5.495 4.7775 5.495 4.7775 6 8.3125 C4.93523437 8.91835938 3.87046875 9.52421875 2.7734375 10.1484375 C-6.89344695 15.70518724 -16.10560714 21.58901947 -25 28.3125 C-25.87567627 28.97185547 -25.87567627 28.97185547 -26.76904297 29.64453125 C-39.22164536 39.0765706 -50.40919107 48.89189409 -60 61.3125 C-60.81210938 62.30894531 -61.62421875 63.30539062 -62.4609375 64.33203125 C-87.12965308 94.86111273 -94.92599418 130.71519025 -91.53125 169.3046875 C-86.98755549 212.06052539 -69.71754661 254.23143837 -49.37011719 291.75146484 C-45.82676187 298.38911945 -43.22695204 305.12764948 -41 312.3125 C-45 312.3125 -45 312.3125 -47.25 310.4375 C-49 308.3125 -49 308.3125 -49 306.3125 C-49.66 306.3125 -50.32 306.3125 -51 306.3125 C-57.30344711 294.03071194 -63.08043199 281.53283199 -68.78710938 268.96435547 C-69.79494603 266.76082855 -70.81760161 264.56651278 -71.859375 262.37890625 C-74.95937311 255.85133291 -77.55608267 249.27213076 -79.91796875 242.44140625 C-80.73391523 240.08193648 -81.58652855 237.75945257 -82.5 235.4375 C-87.15863861 223.03191178 -90.40531032 210.21271759 -93.50683594 197.34863281 C-93.82207432 196.04710405 -94.14908113 194.74833316 -94.49121094 193.45361328 C-95.62659733 188.67561969 -96.34039335 183.80308184 -97.15673828 178.96240234 C-97.4931618 176.97783857 -97.83828868 174.99475646 -98.18359375 173.01171875 C-105.33434355 130.65727763 -98.96254116 92.60752157 -74 57.3125 C-58.51403013 36.10764499 -37.89095726 20.10567727 -16.19238281 5.76928711 C-14.73396482 4.80020246 -13.2902007 3.80868517 -11.86230469 2.79516602 C-7.61573651 -0.11162704 -5.23470639 -1.37411043 0 0 Z " fill="#BFCE2E" transform="translate(295,281.6875)"/>
<path d="M0 0 C0.66 0.33 1.32 0.66 2 1 C2.81640625 3.80859375 2.81640625 3.80859375 3.5625 7.4375 C3.81128906 8.61183594 4.06007813 9.78617187 4.31640625 10.99609375 C6.10402289 20.89540749 6.18630374 30.76539918 6.18530273 40.79345703 C6.18748298 43.23097372 6.20567831 45.66803205 6.22460938 48.10546875 C6.29301156 66.87710047 2.99843315 84.7369484 -3.0625 102.5 C-3.30774414 103.23645752 -3.55298828 103.97291504 -3.80566406 104.73168945 C-4.53515625 106.78125 -4.53515625 106.78125 -6 110 C-7.485 110.495 -7.485 110.495 -9 111 C-18.84355402 81.36461928 -24.43808189 45.15985057 -10.1015625 16.0234375 C-7.1629835 10.31251047 -4.18047121 4.92698392 0 0 Z " fill="#EF8920" transform="translate(696,478)"/>
<path d="M0 0 C-0.69015441 4.65854229 -3.21612122 7.57137919 -6.83642578 10.47070312 C-9.05528926 12.09920789 -11.30201243 13.67981586 -13.5625 15.25 C-33.42618278 29.33645367 -52.45878066 45.53370841 -66 66 C-66.41604492 66.62438965 -66.83208984 67.2487793 -67.26074219 67.89208984 C-76.84860138 82.43264088 -84.3328986 97.84917375 -88.9375 114.6875 C-89.21859619 115.69864868 -89.21859619 115.69864868 -89.50537109 116.73022461 C-93.57412054 133.05279897 -93.26054247 149.93537448 -93.125 166.625 C-93.11493889 168.80728751 -93.10581864 170.98957956 -93.09765625 173.171875 C-93.07591678 178.44801817 -93.04269293 183.72398686 -93 189 C-93.99 188.67 -94.98 188.34 -96 188 C-98.91979191 180.05167757 -99.16849821 171.61329528 -99.421875 163.2265625 C-99.44977112 162.30394623 -99.47766724 161.38132996 -99.50640869 160.43075562 C-99.5625404 158.48271448 -99.61618725 156.53460032 -99.66748047 154.58642578 C-99.72200097 152.62981731 -99.784037 150.67340218 -99.85400391 148.71728516 C-100.44638858 132.12770691 -99.49273278 116.49077991 -93.9375 100.6875 C-93.64004883 99.82487549 -93.34259766 98.96225098 -93.03613281 98.07348633 C-79.18681768 59.2215878 -48.7610525 20.0205055 -11.44921875 0.87890625 C-7.47430943 -0.54749662 -4.17753448 -0.41090503 0 0 Z " fill="#BFCE2E" transform="translate(269,266)"/>
</svg>
